# xmcd
#
# Track frame offsets: 
#        150
#        19871
#        38836
#        55344
#        74596
#        124255
#        138122
#        164128
#        178276
#        192259
#        204093
#        221811
#
# Disc length: 3174 seconds
#
# Revision: 1
# Processed by: cddbd v1.5.2PL0 Copyright (c) Steve Scherf et al.
# Submitted via: ExactAudioCopyFreeDBPlugin 1.0
#
DISCID=bb0c640c
DTITLE=杭天 - 冷水浇头
DYEAR=2002
DGENRE=Blues
TTITLE0=冷水浇头
TTITLE1=嘿，我的南方摇滚兄弟
TTITLE2=牢骚大王blues
TTITLE3=金刚菠萝密，祛病养生经
TTITLE4=一切正常
TTITLE5=我也梦回唐朝
TTITLE6=这并不是过分的要求
TTITLE7=致敬1，给卷发歌手鲍勃.迪伦
TTITLE8=致敬2，给白发老人东史郎
TTITLE9=大公共快点儿开
TTITLE10=衣锦还乡
TTITLE11=五古书京都小白领八部曲
EXTD=made by jD4plUs1@RoR\n\nArtist info @ \n\n
EXTT0=
EXTT1=
EXTT2=
EXTT3=
EXTT4=
EXTT5=
EXTT6=
EXTT7=
EXTT8=
EXTT9=
EXTT10=
EXTT11=
PLAYORDER=
